# xmcd CD database file
#
# Track frame offsets:
#	150
#	14455
#	25763
#	37518
#	51226
#	64109
#	77515
#	91295
#	104102
#	117283
#	130015
#	143723
#	156003
#	167685
#	178915
#	190523
#	202056
#	230236
#	242367
#	256974
#	267606
#	281163
#	295318
#	311048
#	328580
#
# Disc length: 4550 seconds
#
# Revision: 0
# Processed by: cddbd v1.5.2PL0 Copyright (c) Steve Scherf et al.
# Submitted via: CDex 1.51
#
DISCID=6811c419
DTITLE=B.B. KING - The Best Of The Early Years
DYEAR=2007
DGENRE=Blues
TTITLE0=B.B. Boogie
TTITLE1=She's Dynamite
TTITLE2=Shake It Up And Go
TTITLE3=3 O'Clock Blues
TTITLE4=Please Love Me
TTITLE5=Woke Up This Morning
TTITLE6=You Upset Me Baby
TTITLE7=Every Day I Have The Blues
TTITLE8=When My Heart Beats Like A Hammer
TTITLE9=Ten Long Years
TTITLE10=Sweet Little Angel
TTITLE11=Don't Look Now, But I've Got The Blues
TTITLE12=Early In The Morning
TTITLE13=Days Of Old
TTITLE14=Mean Old Frisco
TTITLE15=Catfish Blues Aka Fishin' After Me
TTITLE16=Sweet Sixteen Pts 1 and 2
TTITLE17=I'll Survive
TTITLE18=Downhearted Aka How Blue Can You Get
TTITLE19=Bad Case Of Love
TTITLE20=Rock Me Baby
TTITLE21=Blues Stay Away From Me
TTITLE22=Five Long Years
TTITLE23=That Evil Child
TTITLE24=Why I Sing The Blues
EXTD=YEAR: 2007
EXTT0=
EXTT1=
EXTT2=
EXTT3=
EXTT4=
EXTT5=
EXTT6=
EXTT7=
EXTT8=
EXTT9=
EXTT10=
EXTT11=
EXTT12=
EXTT13=
EXTT14=
EXTT15=
EXTT16=
EXTT17=
EXTT18=
EXTT19=
EXTT20=
EXTT21=
EXTT22=
EXTT23=
EXTT24=
PLAYORDER=
